# Blender v2.79 (sub 0) OBJ File: 'logo.blend'
# www.blender.org
o front.001
v 2.260471 0.248755 -0.139467
v 2.284308 0.234459 -0.282690
v 2.285068 0.233739 -0.289903
v 2.284810 0.232930 -0.298008
v 2.283170 0.232107 -0.306260
v 2.279905 0.231302 -0.314323
v 2.275006 0.230569 -0.321661
v 2.268809 0.229958 -0.327786
v 2.261807 0.229487 -0.332507
v 2.254400 0.229145 -0.335926
v 2.246773 0.228911 -0.338279
v 2.238951 0.228760 -0.339788
v 2.230884 0.228677 -0.340618
v 2.222847 0.228652 -0.340866
v 2.075033 0.228652 -0.340866
v 2.040563 0.253753 -0.089387
v 2.190256 0.253753 -0.089387
v 2.198163 0.253729 -0.089635
v 2.206181 0.253647 -0.090455
v 2.213967 0.253502 -0.091902
v 2.221523 0.253286 -0.094066
v 2.228808 0.252989 -0.097044
v 2.235725 0.252602 -0.100927
v 2.242109 0.252119 -0.105758
v 2.247757 0.251547 -0.111492
v 2.252490 0.250898 -0.117991
v 2.256205 0.250193 -0.125057
v 2.258888 0.249452 -0.132478
v 2.200725 0.284674 0.220402
v 2.224433 0.270244 0.075830
v 2.225178 0.269534 0.068719
v 2.224972 0.268738 0.060737
v 2.223425 0.267921 0.052556
v 2.220293 0.267121 0.044536
v 2.215544 0.266387 0.037187
v 2.209479 0.265770 0.031006
v 2.202584 0.265292 0.026212
v 2.195262 0.264943 0.022724
v 2.187726 0.264704 0.020322
v 2.180017 0.264550 0.018784
v 2.172092 0.264466 0.017940
v 2.164248 0.264441 0.017689
v 1.982861 0.289678 0.270531
v 2.130329 0.289678 0.270531
v 2.138174 0.289653 0.270283
v 2.146210 0.289572 0.269467
v 2.154018 0.289428 0.268024
v 2.161595 0.289213 0.265870
v 2.168902 0.288917 0.262904
v 2.175844 0.288531 0.259036
v 2.182260 0.288049 0.254216
v 2.187946 0.287477 0.248481
v 2.192713 0.286827 0.241968
v 2.196453 0.286119 0.234877
v 2.199147 0.285375 0.227420
v 1.880727 0.217965 -0.447942
v 2.331315 0.217965 -0.447942
v 2.367740 0.218078 -0.446808
v 2.400228 0.218410 -0.443484
v 2.429096 0.218953 -0.438044
v 2.453532 0.219672 -0.430838
v 2.470417 0.220531 -0.422235
v 2.484659 0.221570 -0.411823
v 2.496017 0.222761 -0.399892
v 2.504790 0.224123 -0.386244
v 2.511131 0.225695 -0.370493
v 2.514954 0.227518 -0.352229
v 2.516002 0.229620 -0.331177
v 2.513923 0.232066 -0.306668
v 2.496954 0.243103 -0.196094
v 2.493578 0.244910 -0.177990
v 2.489491 0.246565 -0.161403
v 2.484673 0.248093 -0.146095
v 2.479153 0.249494 -0.132056
v 2.466112 0.251926 -0.107693
v 2.458631 0.252964 -0.097290
v 2.450512 0.253892 -0.087999
v 2.441729 0.254715 -0.079752
v 2.432237 0.255440 -0.072488
v 2.421966 0.256072 -0.066159
v 2.360512 0.259060 -0.036222
v 2.417159 0.261435 -0.012424
v 2.422166 0.261679 -0.009983
v 2.426660 0.261932 -0.007443
v 2.430660 0.262194 -0.004822
v 2.434190 0.262462 -0.002134
v 2.437286 0.262737 0.000615
v 2.439984 0.263017 0.003422
v 2.442322 0.263304 0.006299
v 2.444340 0.263600 0.009267
v 2.446074 0.263909 0.012364
v 2.447547 0.264236 0.015631
v 2.448817 0.264596 0.019238
v 2.449960 0.265014 0.023431
v 2.450969 0.265488 0.028178
v 2.451792 0.266005 0.033357
v 2.452410 0.266564 0.038964
v 2.452811 0.267166 0.044991
v 2.452981 0.267809 0.051436
v 2.452913 0.268494 0.058292
v 2.452596 0.269218 0.065548
v 2.452025 0.269982 0.073202
v 2.451196 0.270785 0.081248
v 2.450104 0.271626 0.089678
v 2.448726 0.272519 0.098616
v 2.427104 0.285497 0.228643
v 2.421492 0.287970 0.253422
v 2.413650 0.290123 0.274990
v 2.403492 0.292036 0.294155
v 2.390991 0.293730 0.311131
v 2.376015 0.295227 0.326126
v 2.358350 0.296540 0.339280
v 2.337762 0.297673 0.350626
v 2.314056 0.298620 0.360116
v 2.287107 0.299372 0.367652
v 2.256837 0.299919 0.373133
v 2.223207 0.300252 0.376471
v 2.185883 0.300366 0.377607
v 1.742036 0.300366 0.377607
v 2.472957 0.250771 -0.119266
v 2.023590 0.264441 0.017689
v -0.677069 0.265293 0.084645
v -0.727638 0.296318 0.395484
v -0.817355 0.213867 -0.430570
v -0.361736 0.213867 -0.430570
v -0.325297 0.213981 -0.429436
v -0.292789 0.214312 -0.426110
v -0.222503 0.216437 -0.404826
v -0.208226 0.217479 -0.394389
v -0.188037 0.220039 -0.368735
v -0.181679 0.221616 -0.352942
v -0.177847 0.223443 -0.334637
v -0.176797 0.225548 -0.313548
v -0.300398 0.262472 0.056385
v -0.317920 0.263226 0.063936
v -0.337353 0.263867 0.070360
v -0.387620 0.265098 0.082694
v -0.504347 0.296318 0.395484
v -0.620769 0.265293 0.084645
v -0.477419 0.225966 -0.309356
v -0.619319 0.225966 -0.309356
v -0.469657 0.252862 -0.039889
v -0.463303 0.252382 -0.044698
v -0.457682 0.251813 -0.050405
v -0.452970 0.251167 -0.056876
v -0.449275 0.250465 -0.063907
v -0.416206 0.231744 -0.251472
v -0.415712 0.230221 -0.266732
v -0.417346 0.229401 -0.274942
v -0.431634 0.227266 -0.296337
v -0.438596 0.226797 -0.301029
v -0.445968 0.226458 -0.304432
v -0.469400 0.225991 -0.309109
v -1.435600 0.284812 0.271860
v -1.078434 0.284812 0.271860
v -1.099578 0.297376 0.397730
v -1.686039 0.297376 0.397730
v -1.547353 0.214460 -0.432981
v -0.974500 0.214460 -0.432981
v -0.995646 0.227023 -0.307110
v -1.353514 0.227023 -0.307110
v -1.380729 0.249296 -0.083969
v -1.080196 0.249296 -0.083969
v -1.101252 0.261859 0.041902
v -1.399647 0.261859 0.041902
v -0.415450 0.231026 -0.258667
v -0.178875 0.227992 -0.289063
v -0.214314 0.250435 -0.064211
v -0.256172 0.296318 0.395484
v -0.955966 0.296318 0.395484
v -0.446602 0.249727 -0.071298
v -0.218312 0.252350 -0.045023
v -0.445025 0.249032 -0.078267
v -0.420600 0.228601 -0.282960
v -0.476542 0.253248 -0.036023
v -0.284712 0.261610 0.047748
v -0.425472 0.227873 -0.290251
v -0.223615 0.254070 -0.027793
v -0.658987 0.254010 -0.028388
v -0.239428 0.215576 -0.413449
v -0.230277 0.255643 -0.012037
v -0.514965 0.254010 -0.028389
v -0.263898 0.214856 -0.420665
v -0.483797 0.253545 -0.033055
v -0.270768 0.260642 0.038049
v -0.461357 0.226073 -0.308280
v -0.238285 0.257076 0.002328
v -0.247657 0.258381 0.015401
v -0.507078 0.253986 -0.028637
v -0.499085 0.253904 -0.029454
v -0.453563 0.226224 -0.306776
v -0.258454 0.259567 0.027282
v -0.491325 0.253760 -0.030898
v -0.196836 0.218673 -0.382423
v 3.557234 0.265293 0.084645
v 3.506665 0.296318 0.395484
v 3.416948 0.213867 -0.430570
v 3.872567 0.213867 -0.430570
v 3.909006 0.213981 -0.429436
v 3.941514 0.214312 -0.426110
v 4.011800 0.216437 -0.404826
v 4.026076 0.217479 -0.394389
v 4.046266 0.220039 -0.368735
v 4.052624 0.221616 -0.352942
v 4.056456 0.223443 -0.334637
v 4.057506 0.225548 -0.313548
v 3.933905 0.262472 0.056385
v 3.916383 0.263226 0.063936
v 3.896950 0.263867 0.070360
v 3.846683 0.265098 0.082694
v 3.729956 0.296318 0.395484
v 3.613534 0.265293 0.084645
v 3.756884 0.225966 -0.309356
v 3.614984 0.225966 -0.309356
v 3.764646 0.252862 -0.039889
v 3.771000 0.252382 -0.044698
v 3.776621 0.251813 -0.050405
v 3.781333 0.251167 -0.056876
v 3.785027 0.250465 -0.063907
v 3.818097 0.231744 -0.251472
v 3.818591 0.230221 -0.266732
v 3.816957 0.229401 -0.274942
v 3.802668 0.227266 -0.296337
v 3.795707 0.226797 -0.301029
v 3.788335 0.226458 -0.304432
v 3.764903 0.225991 -0.309109
v 2.798702 0.284812 0.271860
v 3.155868 0.284812 0.271860
v 3.134725 0.297376 0.397730
v 2.548264 0.297376 0.397730
v 2.686949 0.214460 -0.432981
v 3.259803 0.214460 -0.432981
v 3.238656 0.227023 -0.307110
v 2.880789 0.227023 -0.307110
v 2.853574 0.249296 -0.083969
v 3.154107 0.249296 -0.083969
v 3.133051 0.261859 0.041902
v 2.834656 0.261859 0.041902
v 3.818853 0.231026 -0.258667
v 4.055429 0.227992 -0.289063
v 4.019988 0.250435 -0.064211
v 3.978130 0.296318 0.395484
v 3.278336 0.296318 0.395484
v 3.787700 0.249727 -0.071298
v 4.015991 0.252350 -0.045023
v 3.789278 0.249032 -0.078267
v 3.813703 0.228601 -0.282960
v 3.757761 0.253248 -0.036023
v 3.949590 0.261610 0.047748
v 3.808831 0.227873 -0.290251
v 4.010687 0.254070 -0.027793
v 3.575316 0.254010 -0.028388
v 3.994875 0.215576 -0.413449
v 4.004025 0.255643 -0.012037
v 3.719338 0.254010 -0.028389
v 3.970404 0.214856 -0.420665
v 3.750507 0.253545 -0.033055
v 3.963535 0.260642 0.038049
v 3.772946 0.226073 -0.308280
v 3.996018 0.257076 0.002328
v 3.986645 0.258381 0.015401
v 3.727225 0.253986 -0.028637
v 3.735218 0.253904 -0.029454
v 3.780740 0.226224 -0.306776
v 3.975848 0.259567 0.027282
v 3.742978 0.253760 -0.030898
v 4.037467 0.218673 -0.382423
v 1.395633 0.299545 0.377729
v 1.385229 0.286481 0.246849
v 1.043018 0.299545 0.377729
v 1.211087 0.217136 -0.447899
v 1.515546 0.217136 -0.447899
v 1.626495 0.299545 0.377729
v 1.149276 0.274561 0.127425
v 1.373871 0.274561 0.127425
v 1.331200 0.230433 -0.314675
v 0.817204 0.299545 0.377729
v 1.098672 0.286481 0.246849
v -2.341221 0.214638 -0.431200
v -1.816110 0.215083 -0.426735
v -1.787169 0.215628 -0.421281
v -1.762623 0.216350 -0.414042
v -1.745614 0.217215 -0.405375
v -1.704551 0.222425 -0.353183
v -1.700700 0.224261 -0.334789
v -1.699646 0.226374 -0.313621
v -1.701728 0.228822 -0.289087
v -1.746703 0.256176 -0.015035
v -1.754496 0.258340 0.006638
v -1.777078 0.261965 0.042955
v -1.792030 0.263468 0.058014
v -1.854041 0.266872 0.092117
v -1.881088 0.267626 0.099674
v -1.911520 0.268174 0.105168
v -1.982952 0.268622 0.109651
v -2.203929 0.268622 0.109651
v -2.250566 0.297198 0.395949
v -2.480014 0.297198 0.395949
v -1.971701 0.251479 -0.062093
v -1.940152 0.232561 -0.251626
v -1.939402 0.231849 -0.258768
v -1.939661 0.231052 -0.266753
v -1.941276 0.230242 -0.274868
v -1.944489 0.229451 -0.282785
v -1.962269 0.227670 -0.300634
v -1.969567 0.227334 -0.304002
v -1.977098 0.227102 -0.306326
v -1.984838 0.226952 -0.307820
v -1.992838 0.226870 -0.308644
v -2.184291 0.256414 -0.012659
v -2.033226 0.256389 -0.012906
v -2.025279 0.256308 -0.013720
v -2.017570 0.256164 -0.015155
v -2.010100 0.255951 -0.017297
v -1.996086 0.255274 -0.024074
v -1.989797 0.254799 -0.028835
v -1.984234 0.254235 -0.034486
v -1.975915 0.252901 -0.047852
v -1.973267 0.252170 -0.055174
v -1.945396 0.268508 0.108513
v -1.710946 0.220839 -0.369069
v -2.002906 0.255657 -0.020241
v -1.719801 0.219464 -0.382845
v -1.731261 0.218262 -0.394883
v -2.142223 0.226846 -0.308891
v -1.979573 0.253596 -0.040890
v -1.741163 0.253701 -0.039833
v -2.041080 0.256414 -0.012659
v -1.764612 0.260262 0.025899
v -1.848661 0.214751 -0.430065
v -2.000828 0.226846 -0.308891
v -1.885127 0.214638 -0.431200
v -1.809686 0.264785 0.071216
v -1.949300 0.228733 -0.289984
v -1.830288 0.265922 0.082600
v -1.955386 0.228133 -0.295995
v -3.284237 0.201408 -0.597132
v -4.181957 0.228191 -0.328801
v -4.191601 0.230882 -0.301843
v -4.201310 0.278254 0.172762
v -4.211239 0.281843 0.208722
v -4.425926 0.307779 0.468563
v -4.427037 0.310059 0.491414
v -4.420422 0.312068 0.511537
v -4.380702 0.314907 0.539982
v -3.728834 0.314653 0.537435
v -3.703209 0.313874 0.529635
v -3.652024 0.309529 0.486096
v -3.480269 0.292036 0.310843
v -3.470130 0.241053 -0.199939
v -3.464581 0.237765 -0.232884
v -3.448546 0.234862 -0.261970
v -3.245437 0.209354 -0.517522
v -3.241824 0.204952 -0.561621
v -3.264784 0.202033 -0.590869
v -3.939928 0.204177 -0.569390
v -3.250803 0.203237 -0.578810
v -3.239264 0.206918 -0.541932
v -4.403426 0.314058 0.531471
v -3.472435 0.290002 0.290465
v -3.522138 0.296631 0.356881
v -3.917464 0.202314 -0.588051
v -3.894738 0.201468 -0.596531
v -4.414845 0.305323 0.443965
v -4.240681 0.285574 0.246100
v 0.559909 0.268026 0.068373
v 0.549867 0.265175 0.039814
v 0.521374 0.263962 0.027659
v 0.351777 0.263860 0.026634
v 0.304785 0.263081 0.018833
v 0.268547 0.261330 0.001287
v 0.248627 0.258696 -0.025101
v 0.239255 0.255461 -0.057504
v 0.238794 0.251376 -0.098438
v 0.274371 0.229368 -0.318927
v 0.287415 0.225485 -0.357826
v 0.310549 0.222040 -0.392340
v 0.334371 0.220034 -0.412443
v 0.363507 0.218407 -0.428739
v 0.415359 0.216875 -0.444093
v 0.463698 0.216241 -0.450446
v 0.697842 0.216241 -0.450446
v 0.744846 0.216857 -0.444268
v 0.776879 0.218254 -0.430271
v 0.793812 0.219717 -0.415617
v 0.806944 0.221565 -0.397106
v 0.817357 0.224899 -0.363705
v 0.818563 0.228737 -0.325250
v 0.802718 0.239293 -0.219493
v 0.609009 0.239293 -0.219493
v 0.619640 0.233019 -0.282348
v 0.608725 0.230174 -0.310850
v 0.579433 0.228996 -0.322659
v 0.512178 0.228995 -0.322659
v 0.485647 0.230082 -0.311773
v 0.470097 0.232439 -0.288163
v 0.442641 0.247973 -0.132532
v 0.451823 0.250802 -0.104188
v 0.479330 0.252059 -0.091589
v 0.651833 0.252159 -0.090590
v 0.699535 0.252904 -0.083126
v 0.734864 0.254570 -0.066434
v 0.753650 0.257037 -0.041719
v 0.762275 0.260134 -0.010693
v 0.762319 0.264111 0.029157
v 0.723076 0.286072 0.249170
v 0.709069 0.289982 0.288346
v 0.686025 0.293471 0.323306
v 0.663594 0.295489 0.343518
v 0.637212 0.297101 0.359672
v 0.592001 0.298606 0.374747
v 0.542553 0.299237 0.381065
v 0.309532 0.299237 0.381065
v 0.263122 0.298613 0.374819
v 0.224346 0.297170 0.360362
v 0.198371 0.295073 0.339349
v 0.186465 0.293065 0.319233
v 0.179314 0.290619 0.294734
v 0.178931 0.286788 0.256343
v 0.197397 0.276184 0.150112
v 0.394046 0.276184 0.150112
v 0.383129 0.282400 0.212380
v 0.392500 0.285233 0.240769
v 0.420342 0.286482 0.253278
v 0.487786 0.286482 0.253278
v 0.515771 0.285443 0.242870
v 0.532632 0.283083 0.219225
vn -0.0000 0.9951 -0.0993
vn 0.0000 -0.9951 0.0993
vn 0.0000 -0.9950 0.0994
vn -0.0001 0.9944 -0.1058
vn -0.0000 0.9950 -0.0994
vn 0.0000 0.9951 -0.0992
vn -0.0000 0.9951 -0.0994
vn -0.0000 0.9951 -0.0990
vn -0.0000 0.9951 -0.0989
s 1
f 121//1 120//1 17//1
f 20//2 19//3 18//2
f 29//1 55//1 111//1
f 16//1 119//1 121//1
f 56//1 119//1 15//1
f 56//1 15//1 57//1
f 15//1 14//1 57//1
f 58//1 57//1 7//1
f 13//1 57//1 14//1
f 60//1 59//1 5//1
f 59//1 58//1 6//1
f 7//1 57//1 8//1
f 62//1 61//1 67//1
f 61//1 60//1 68//1
f 64//1 63//1 66//1
f 63//1 62//1 66//1
f 66//1 65//1 64//1
f 68//1 67//1 61//1
f 67//1 66//1 62//1
f 70//1 69//1 2//1
f 69//1 68//1 60//1
f 120//1 1//1 28//1
f 72//1 71//1 2//1
f 71//1 70//1 2//1
f 74//1 73//1 1//1
f 73//1 72//1 1//1
f 57//1 13//1 12//1
f 1//1 120//1 74//1
f 120//1 28//1 27//1
f 120//1 27//1 26//1
f 57//1 12//1 11//1
f 57//1 11//1 10//1
f 69//1 60//1 5//1
f 57//1 10//1 9//1
f 57//1 9//1 8//1
f 58//1 7//1 6//1
f 59//1 6//1 5//1
f 5//1 4//1 69//1
f 4//1 3//1 69//1
f 3//1 2//1 69//1
f 2//1 1//1 72//1
f 120//1 26//1 25//1
f 120//1 25//1 24//1
f 120//1 24//1 23//1
f 120//1 23//1 22//1
f 120//1 22//1 21//1
f 120//1 21//1 20//4
f 17//1 120//1 20//4
f 17//2 20//2 18//2
f 76//1 75//1 80//1
f 75//1 120//1 80//1
f 120//1 121//1 42//1
f 120//1 42//1 81//1
f 42//1 41//1 81//1
f 77//1 76//1 79//1
f 79//1 76//1 80//1
f 79//1 78//5 77//1
f 81//1 80//1 120//1
f 83//1 82//1 97//1
f 82//1 81//1 102//1
f 102//1 81//1 103//1
f 85//1 84//1 95//1
f 84//1 83//1 95//1
f 87//1 86//1 94//1
f 86//1 85//1 94//1
f 89//6 88//5 91//1
f 88//5 87//1 91//1
f 91//1 90//6 89//6
f 93//1 92//1 91//1
f 95//1 94//1 85//1
f 94//1 93//1 87//1
f 97//1 96//1 83//1
f 96//1 95//1 83//1
f 99//1 98//1 82//1
f 98//1 97//1 82//1
f 101//1 100//1 82//1
f 100//1 99//1 82//1
f 102//1 101//1 82//1
f 105//1 104//1 31//1
f 104//1 103//1 81//1
f 107//1 106//1 29//1
f 106//1 105//1 30//1
f 32//1 81//1 33//1
f 109//1 108//1 29//1
f 108//1 107//1 29//1
f 111//1 110//1 29//1
f 110//1 109//1 29//1
f 113//1 112//1 55//1
f 112//1 111//1 55//1
f 113//1 54//1 114//1
f 115//1 114//1 54//1
f 51//1 116//1 52//1
f 117//1 116//1 51//1
f 116//1 115//1 53//1
f 49//1 118//1 117//1
f 119//1 118//1 43//1
f 47//1 118//1 48//1
f 44//1 43//1 118//1
f 45//1 44//1 118//1
f 118//1 47//1 46//1
f 118//1 49//1 48//1
f 54//1 113//1 55//1
f 81//1 32//1 31//1
f 104//1 81//1 31//1
f 33//1 81//1 34//1
f 93//1 91//1 87//1
f 52//1 116//1 53//1
f 49//1 117//1 50//1
f 46//1 45//1 118//1
f 41//1 40//1 81//1
f 40//1 39//1 81//1
f 81//1 39//1 38//1
f 50//1 117//1 51//1
f 81//1 38//1 37//1
f 81//1 37//1 36//1
f 53//1 115//1 54//1
f 81//1 36//1 35//1
f 81//1 35//1 34//1
f 105//1 31//1 30//1
f 106//1 30//1 29//1
f 16//1 15//1 119//1
f 119//1 43//1 121//1
f 121//1 17//1 16//1
f 162//1 161//1 158//1
f 170//1 141//1 124//1
f 141//1 125//1 124//1
f 168//1 147//1 173//1
f 167//1 166//1 147//1
f 146//1 134//1 171//1
f 127//1 174//1 149//1
f 126//1 177//1 174//1
f 144//1 137//1 145//1
f 143//1 137//1 144//1
f 125//1 150//1 177//1
f 125//1 151//1 150//1
f 167//1 148//1 166//1
f 142//1 137//1 143//1
f 136//1 146//1 145//1
f 167//1 149//1 148//1
f 125//1 152//1 151//1
f 125//1 191//1 152//1
f 183//1 149//1 167//1
f 175//1 137//1 142//1
f 137//1 193//1 190//1
f 190//1 189//1 137//1
f 170//1 179//1 141//1
f 189//1 182//1 139//1
f 193//1 137//1 184//1
f 139//1 137//1 189//1
f 122//1 139//1 182//1
f 137//1 175//1 184//1
f 137//1 136//1 145//1
f 135//1 146//1 136//1
f 135//1 134//1 146//1
f 176//1 171//1 134//1
f 185//1 192//1 171//1
f 176//1 185//1 171//1
f 188//1 187//1 173//1
f 192//1 188//1 173//1
f 181//1 178//1 173//1
f 187//1 181//1 173//1
f 172//1 168//1 173//1
f 178//1 172//1 173//1
f 167//1 133//1 183//1
f 168//1 167//1 147//1
f 132//1 131//1 128//1
f 179//1 170//1 122//1
f 173//1 171//1 192//1
f 133//1 132//1 180//1
f 131//1 130//1 194//1
f 129//1 128//1 131//1
f 194//1 129//1 131//1
f 180//1 183//1 133//1
f 128//1 180//1 132//1
f 125//1 186//1 191//1
f 183//1 127//1 149//1
f 125//1 140//1 153//1
f 125//1 141//1 140//1
f 186//1 125//1 153//1
f 126//1 125//1 177//1
f 127//1 126//1 174//1
f 139//1 169//1 137//1
f 170//1 123//1 122//1
f 138//1 169//1 139//1
f 157//1 154//1 165//1
f 157//1 156//1 154//1
f 156//1 155//1 154//1
f 165//1 164//1 162//1
f 164//1 163//1 162//1
f 160//1 159//1 161//1
f 159//1 158//1 161//1
f 158//1 157//1 165//1
f 165//1 162//1 158//1
f 179//1 122//1 182//1
f 235//1 234//1 231//1
f 243//1 214//1 197//1
f 214//1 198//1 197//1
f 241//1 220//1 246//1
f 240//1 239//1 220//1
f 219//1 207//1 244//1
f 200//1 247//1 222//1
f 199//1 250//1 247//1
f 217//1 210//1 218//1
f 216//1 210//1 217//1
f 198//1 223//1 250//1
f 198//1 224//1 223//1
f 240//1 221//1 239//1
f 215//1 210//1 216//1
f 209//1 219//1 218//1
f 240//1 222//1 221//1
f 198//1 225//1 224//1
f 198//1 264//1 225//1
f 256//1 222//1 240//1
f 248//1 210//1 215//1
f 210//1 266//1 263//1
f 263//1 262//1 210//1
f 243//1 252//1 214//1
f 262//1 255//1 212//1
f 266//1 210//1 257//1
f 212//1 210//1 262//1
f 195//1 212//1 255//1
f 210//1 248//1 257//1
f 210//1 209//1 218//1
f 208//1 219//1 209//1
f 208//1 207//1 219//1
f 249//1 244//1 207//1
f 258//1 265//1 244//1
f 249//1 258//1 244//1
f 261//1 260//1 246//1
f 265//1 261//1 246//1
f 254//1 251//1 246//1
f 260//1 254//1 246//1
f 245//1 241//1 246//1
f 251//1 245//1 246//1
f 240//1 206//1 256//1
f 241//1 240//1 220//1
f 205//1 204//1 201//1
f 252//1 243//1 195//1
f 246//1 244//1 265//1
f 206//1 205//1 253//1
f 204//1 203//1 267//1
f 202//1 201//1 204//1
f 267//1 202//1 204//1
f 253//1 256//1 206//1
f 201//1 253//1 205//1
f 198//1 259//1 264//1
f 256//1 200//1 222//1
f 198//1 213//1 226//1
f 198//1 214//1 213//1
f 259//1 198//1 226//1
f 199//1 198//1 250//1
f 200//1 199//1 247//1
f 212//1 242//1 210//1
f 243//1 196//1 195//1
f 211//1 242//1 212//1
f 230//1 227//1 238//1
f 230//1 229//1 227//1
f 229//1 228//1 227//1
f 238//1 237//1 235//1
f 237//1 236//1 235//1
f 233//1 232//1 234//1
f 232//1 231//1 234//1
f 231//1 230//1 238//1
f 238//1 235//1 231//1
f 252//1 195//1 255//1
f 271//1 274//1 276//1
f 276//1 275//1 272//1
f 275//1 273//1 272//1
f 271//1 277//1 274//1
f 274//1 277//1 278//1
f 278//1 269//1 275//1
f 269//1 273//1 275//1
f 278//1 275//1 274//1
f 268//1 273//1 269//1
f 272//1 271//1 276//1
f 277//1 270//1 278//1
f 298//1 325//1 279//1
f 325//1 332//1 279//1
f 303//1 287//1 281//1
f 332//1 306//1 305//1
f 332//1 308//1 307//1
f 280//1 304//1 303//1
f 332//1 325//1 331//1
f 334//1 304//1 330//1
f 282//1 281//1 286//1
f 321//1 323//1 324//1
f 281//1 280//1 303//1
f 286//1 285//1 282//1
f 332//1 305//1 336//1
f 332//1 307//1 306//1
f 287//1 286//1 281//1
f 283//1 284//1 324//1
f 284//1 321//1 324//1
f 283//1 282//1 285//1
f 301//1 300//1 287//1
f 304//1 280//1 330//1
f 327//1 299//1 319//1
f 298//1 310//1 325//1
f 318//1 326//1 327//1
f 327//1 300//1 299//1
f 326//1 317//1 327//1
f 317//1 316//1 327//1
f 302//1 287//1 303//1
f 332//1 331//1 309//1
f 316//1 315//1 327//1
f 315//1 322//1 327//1
f 308//1 332//1 309//1
f 302//1 301//1 287//1
f 327//1 287//1 300//1
f 322//1 314//1 327//1
f 314//1 313//7 327//1
f 332//1 336//1 334//1
f 289//1 288//1 333//1
f 312//8 327//1 313//7
f 311//9 327//1 312//8
f 328//2 327//2 311//2
f 310//1 298//1 296//1
f 327//1 319//1 318//1
f 289//1 291//1 329//1
f 330//1 332//1 334//1
f 291//1 290//1 329//1
f 333//1 291//1 289//1
f 328//1 335//1 288//1
f 335//1 333//1 288//1
f 292//1 335//1 328//1
f 293//1 292//1 328//1
f 294//1 293//1 328//1
f 328//1 296//1 294//1
f 288//1 327//1 328//1
f 296//1 320//1 294//1
f 296//1 295//1 320//1
f 298//1 297//1 296//1
f 310//1 296//1 328//1
f 285//1 284//1 283//1
f 340//1 346//1 348//1
f 361//1 349//1 360//1
f 348//1 361//1 340//1
f 346//1 347//1 348//1
f 345//1 346//1 365//1
f 344//1 359//1 345//1
f 343//1 344//1 345//1
f 342//1 343//1 345//1
f 350//1 340//1 360//1
f 341//1 365//1 346//1
f 364//1 342//1 345//1
f 365//1 364//1 345//1
f 340//1 341//1 346//1
f 353//1 358//1 337//1
f 352//1 353//1 337//1
f 358//1 354//1 337//1
f 357//1 337//1 354//1
f 356//1 350//1 351//1
f 351//1 363//1 356//1
f 339//1 340//1 350//1
f 338//1 339//1 350//1
f 356//1 338//1 350//1
f 352//1 363//1 351//1
f 363//1 362//1 356//1
f 337//1 363//1 352//1
f 357//1 355//1 337//1
f 360//1 340//1 361//1
f 382//1 381//1 394//1
f 381//1 380//1 395//1
f 380//1 379//1 395//1
f 379//1 378//1 396//1
f 378//1 377//1 396//1
f 377//1 376//1 396//1
f 379//1 396//1 395//1
f 376//1 375//1 396//1
f 375//1 374//1 396//1
f 374//1 373//1 397//1
f 397//1 373//1 372//1
f 371//1 370//1 397//1
f 370//1 369//1 398//1
f 369//1 368//1 399//1
f 370//1 398//1 397//1
f 397//1 372//1 371//1
f 383//1 382//1 392//1
f 392//1 384//1 383//1
f 384//1 391//1 385//1
f 386//1 385//1 391//1
f 387//1 386//1 391//1
f 388//1 387//1 391//1
f 389//1 388//1 391//1
f 391//1 390//1 389//1
f 391//1 384//1 392//1
f 368//1 367//1 400//1
f 398//1 369//1 399//1
f 422//1 421//1 420//1
f 420//1 419//1 422//1
f 419//1 418//1 422//1
f 418//1 417//1 422//1
f 417//1 416//1 422//1
f 416//1 415//1 422//1
f 415//1 414//1 423//1
f 414//1 413//1 423//1
f 413//1 412//1 425//1
f 412//1 411//1 426//1
f 411//1 410//1 426//1
f 410//1 409//1 427//1
f 409//1 408//1 427//1
f 408//1 407//1 427//1
f 410//1 427//1 426//1
f 407//1 406//1 427//1
f 406//1 405//1 427//1
f 366//1 405//1 404//1
f 366//1 404//1 403//1
f 366//1 403//1 402//1
f 402//1 401//1 366//1
f 401//1 400//1 367//1
f 400//1 399//1 368//1
f 401//1 367//1 366//1
f 412//1 426//1 425//1
f 423//1 422//1 415//1
f 424//1 423//1 413//1
f 425//1 424//1 413//1
f 393//1 392//1 382//1
f 394//1 393//1 382//1
f 366//1 427//1 405//1
f 395//1 394//1 381//1
f 397//1 396//1 374//1
